<?xml version="1.0" encoding="utf-8"?>
<svg xmlns="http://www.w3.org/2000/svg" viewBox="-16.578 160.371 520.285 144.362" style="">
  <g id="Réteg_2" transform="matrix(0.970694, 0, 0, 0.970694, -43.197262, 52.467747)" style="">
    <path class="cls-1" d="M 166.643 211.383 L 166.643 161.703 L 179.763 161.703 L 179.763 178.263 L 194.763 161.723 L 212.003 161.723 L 191.353 184.153 L 212.643 211.403 L 196.263 211.403 L 182.633 193.523 L 179.723 196.713 L 179.723 211.403 L 166.643 211.383 Z" style="fill: rgb(23, 35, 45); stroke-width: 1;"/>
    <path class="cls-1" d="M 233.263 212.263 C 229.783 212.326 226.344 211.511 223.263 209.893 C 220.423 208.369 218.054 206.097 216.413 203.323 C 213.126 197.31 213.126 190.037 216.413 184.023 C 218.03 181.245 220.388 178.97 223.223 177.453 C 229.515 174.296 236.93 174.296 243.223 177.453 C 246.057 178.97 248.415 181.245 250.033 184.023 C 253.299 190.042 253.299 197.305 250.033 203.323 C 248.417 206.082 246.075 208.344 243.263 209.863 C 240.189 211.505 236.746 212.331 233.263 212.263 Z M 223.183 171.033 C 218.333 171.072 215.261 165.846 217.652 161.627 C 220.044 157.408 226.106 157.36 228.564 161.54 C 230.02 164.017 229.616 167.164 227.583 169.193 C 226.43 170.375 224.843 171.029 223.193 171.003 L 223.183 171.033 Z M 233.263 200.453 C 234.367 200.476 235.453 200.17 236.383 199.573 C 237.292 198.966 238.026 198.132 238.513 197.153 C 239.546 194.934 239.546 192.372 238.513 190.153 C 238.021 189.168 237.276 188.333 236.353 187.733 C 235.384 187.132 234.262 186.826 233.123 186.853 C 232.006 186.833 230.908 187.139 229.963 187.733 C 229.04 188.333 228.294 189.168 227.803 190.153 C 226.769 192.372 226.769 194.934 227.803 197.153 C 228.824 199.224 230.955 200.512 233.263 200.453 L 233.263 200.453 Z M 242.353 171.003 C 237.405 171.147 234.157 165.88 236.507 161.523 C 238.857 157.167 245.042 156.988 247.64 161.201 C 249.204 163.738 248.82 167.016 246.713 169.123 C 245.582 170.32 244.009 171 242.363 171.003 L 242.353 171.003 Z" style="fill: rgb(23, 35, 45); stroke-width: 1;"/>
    <path class="cls-1" d="M 254.423 211.383 L 254.423 202.513 L 268.753 186.193 L 254.423 186.193 L 254.423 175.903 L 284.513 175.903 L 284.513 184.773 L 270.173 201.163 L 284.513 201.163 L 284.513 211.383 L 254.423 211.383 Z" style="fill: rgb(23, 35, 45); stroke-width: 1;"/>
    <path class="cls-1" d="M 313.113 212.263 C 308.507 212.356 303.96 211.217 299.943 208.963 C 296.17 206.815 293.057 203.675 290.943 199.883 C 286.582 191.549 286.582 181.607 290.943 173.273 C 293.057 169.479 296.17 166.336 299.943 164.183 C 307.209 160.298 315.82 159.819 323.473 162.873 C 326.493 164.147 329.217 166.034 331.473 168.413 C 333.701 170.793 335.438 173.59 336.583 176.643 L 324.093 180.643 C 323.468 179.153 322.603 177.774 321.533 176.563 C 320.519 175.427 319.275 174.52 317.883 173.903 C 316.39 173.273 314.783 172.96 313.163 172.983 C 310.977 172.945 308.828 173.55 306.983 174.723 C 305.167 175.907 303.708 177.563 302.763 179.513 C 301.707 181.725 301.186 184.153 301.243 186.603 C 301.195 189.047 301.73 191.467 302.803 193.663 C 303.764 195.635 305.248 197.306 307.093 198.493 C 308.972 199.671 311.155 200.276 313.373 200.233 C 315.024 200.262 316.661 199.92 318.163 199.233 C 319.506 198.598 320.694 197.677 321.643 196.533 C 322.665 195.294 323.512 193.922 324.163 192.453 L 336.653 196.453 C 335.558 199.517 333.857 202.33 331.653 204.723 C 329.406 207.12 326.68 209.017 323.653 210.293 C 320.31 211.66 316.723 212.331 313.113 212.263 Z" style="fill: rgb(23, 35, 45); stroke-width: 1;"/>
    <path class="cls-1" d="M 352.143 212.263 C 348.023 212.263 344.816 211.33 342.523 209.463 C 340.229 207.597 339.083 204.913 339.083 201.413 C 339.083 197.713 340.229 194.98 342.523 193.213 C 344.816 191.447 348.023 190.56 352.143 190.553 L 361.083 190.553 C 361.011 189.194 360.568 187.879 359.803 186.753 C 359.093 185.753 357.803 185.303 355.803 185.303 C 354.766 185.259 353.743 185.558 352.893 186.153 C 352.148 186.711 351.5 187.387 350.973 188.153 L 339.863 184.563 C 340.818 182.7 342.079 181.01 343.593 179.563 C 345.108 178.127 346.892 177.006 348.843 176.263 C 350.987 175.459 353.263 175.062 355.553 175.093 C 358.905 174.984 362.236 175.669 365.273 177.093 C 367.849 178.362 369.995 180.362 371.443 182.843 C 372.903 185.466 373.639 188.432 373.573 191.433 L 373.573 211.373 L 361.573 211.373 L 361.433 208.253 C 360.399 209.575 359.042 210.608 357.493 211.253 C 355.794 211.941 353.975 212.284 352.143 212.263 Z M 355.473 203.323 C 356.529 203.353 357.577 203.133 358.533 202.683 C 359.368 202.283 360.064 201.642 360.533 200.843 C 361.018 200.002 361.264 199.044 361.243 198.073 L 361.243 197.863 L 357.243 197.863 C 355.908 197.784 354.579 198.079 353.403 198.713 C 352.55 199.212 352.037 200.136 352.063 201.123 C 352.036 201.797 352.392 202.428 352.983 202.753 C 353.752 203.142 354.612 203.318 355.473 203.263 L 355.473 203.323 Z" style="fill: rgb(23, 35, 45); stroke-width: 1;"/>
    <path class="cls-1" d="M 379.603 211.383 L 379.603 175.903 L 391.673 175.903 L 392.163 180.233 C 394.259 176.946 397.914 174.984 401.813 175.053 C 404.341 174.951 406.847 175.553 409.053 176.793 C 411.021 178.043 412.501 179.932 413.243 182.143 C 414.232 180.002 415.792 178.175 417.753 176.863 C 419.622 175.655 421.807 175.025 424.033 175.053 C 428.386 175.053 431.603 176.353 433.683 178.953 C 435.763 181.553 436.803 185.597 436.803 191.083 L 436.803 211.383 L 424.033 211.383 L 424.033 193.263 C 424.062 192.122 423.907 190.984 423.573 189.893 C 423.318 189.114 422.85 188.421 422.223 187.893 C 421.577 187.404 420.793 187.131 419.983 187.113 C 418.537 186.924 417.081 187.365 415.983 188.323 C 414.985 189.504 414.499 191.033 414.633 192.573 L 414.633 211.453 L 401.813 211.453 L 401.813 193.263 C 401.847 192.122 401.692 190.983 401.353 189.893 C 401.105 189.113 400.64 188.419 400.013 187.893 C 399.366 187.405 398.582 187.132 397.773 187.113 C 396.311 186.915 394.835 187.355 393.723 188.323 C 392.733 189.508 392.251 191.035 392.383 192.573 L 392.383 211.453 L 379.603 211.383 Z" style="fill: rgb(23, 35, 45); stroke-width: 1;"/>
    <path class="cls-1" d="M 443.193 225.573 L 443.193 175.903 L 455.263 175.903 L 455.693 179.903 C 456.717 178.363 458.118 177.111 459.763 176.263 C 461.54 175.401 463.498 174.976 465.473 175.023 C 468.495 174.934 471.482 175.696 474.093 177.223 C 476.528 178.733 478.446 180.948 479.593 183.573 C 482.153 190.011 482.153 197.185 479.593 203.623 C 478.453 206.261 476.534 208.487 474.093 210.003 C 471.482 211.53 468.495 212.292 465.473 212.203 C 463.563 212.251 461.669 211.85 459.943 211.033 C 458.358 210.248 456.986 209.092 455.943 207.663 L 455.943 225.543 L 443.193 225.573 Z M 462.063 200.453 C 463.17 200.478 464.26 200.171 465.193 199.573 C 466.106 198.962 466.849 198.13 467.353 197.153 C 467.913 196.069 468.194 194.863 468.173 193.643 C 468.197 192.428 467.93 191.224 467.393 190.133 C 466.913 189.16 466.177 188.337 465.263 187.753 C 464.326 187.175 463.243 186.879 462.143 186.903 C 461.018 186.885 459.91 187.179 458.943 187.753 C 457.999 188.322 457.236 189.148 456.743 190.133 C 455.709 192.352 455.709 194.914 456.743 197.133 C 457.235 198.121 457.984 198.957 458.913 199.553 C 459.852 200.155 460.947 200.468 462.063 200.453 Z" style="fill: rgb(23, 35, 45); stroke-width: 1;"/>
    <path class="cls-1" d="M 498.543 212.263 C 496.037 212.36 493.555 211.758 491.373 210.523 C 489.414 209.286 487.927 207.427 487.153 205.243 C 486.149 202.352 485.681 199.302 485.773 196.243 L 485.773 175.903 L 498.543 175.903 L 498.543 194.073 C 498.513 195.201 498.668 196.326 499.003 197.403 C 499.246 198.205 499.715 198.92 500.353 199.463 C 500.999 199.953 501.782 200.225 502.593 200.243 C 504.046 200.389 505.494 199.926 506.593 198.963 C 507.584 197.807 508.07 196.301 507.943 194.783 L 507.943 175.903 L 520.713 175.903 L 520.713 211.383 L 508.693 211.383 L 508.193 207.053 C 507.129 208.653 505.691 209.968 504.003 210.883 C 502.33 211.8 500.45 212.275 498.543 212.263 Z" style="fill: rgb(23, 35, 45); stroke-width: 1;"/>
    <path class="cls-1" d="M 540.553 212.263 C 538.314 212.279 536.086 211.941 533.953 211.263 C 532.053 210.671 530.284 209.721 528.743 208.463 C 527.351 207.318 526.311 205.803 525.743 204.093 L 535.893 200.093 C 536.24 201.188 537.042 202.08 538.093 202.543 C 538.882 202.863 539.721 203.043 540.573 203.073 C 541.226 203.101 541.872 202.926 542.423 202.573 C 542.889 202.255 543.158 201.718 543.133 201.153 C 543.111 200.461 542.733 199.829 542.133 199.483 C 541.186 198.93 540.156 198.535 539.083 198.313 L 536.173 197.603 C 533.39 197.031 530.872 195.563 529.003 193.423 C 527.399 191.447 526.545 188.968 526.593 186.423 C 526.432 183.118 527.933 179.951 530.593 177.983 C 533.259 175.983 536.889 174.983 541.483 174.983 C 543.879 174.911 546.27 175.249 548.553 175.983 C 550.317 176.576 551.927 177.556 553.263 178.853 C 554.485 180.069 555.451 181.518 556.103 183.113 L 546.263 186.973 C 545.989 186.099 545.392 185.362 544.593 184.913 C 543.706 184.46 542.718 184.24 541.723 184.273 C 541.048 184.232 540.381 184.434 539.843 184.843 C 538.837 185.554 538.978 187.087 540.097 187.603 C 540.128 187.617 540.16 187.631 540.193 187.643 C 541.19 188.171 542.252 188.565 543.353 188.813 L 546.263 189.523 C 548.28 189.981 550.202 190.786 551.943 191.903 C 553.485 192.907 554.772 194.256 555.703 195.843 C 556.624 197.488 557.09 199.349 557.053 201.233 C 557.107 203.394 556.375 205.502 554.993 207.163 C 553.448 208.91 551.462 210.208 549.243 210.923 C 546.444 211.865 543.505 212.318 540.553 212.263 Z" style="fill: rgb(23, 35, 45); stroke-width: 1;"/>
    <g id="Absztrakt_kitöltött" data-name="Absztrakt kitöltött" transform="matrix(1, 0, 0, 1, 4.262585, -110.736732)">
      <path class="cls-1" d="M128.82,278.35c1.09,33.25.34,50.79-14.42,63.67-5.74,5-12.72,6.24-18.57,4.37,10.43-4,16.38-21.32,8.59-28.95a27.65,27.65,0,0,0-6.91-4.91c5.46-1.68,10.48-3.21,10.48-9.92,0-6.1-2.85-9.43-6.21-12.52a30.61,30.61,0,0,0,7.15-19.58c0-6.69-2.19-14.06-6.15-18.47a25,25,0,0,1,9.93-3.79C120.68,247.4,127.84,247.85,128.82,278.35Z" style="fill: rgb(23, 35, 45);"/>
      <path class="cls-2" d="M102.78,252c4,4.41,6.15,11.78,6.15,18.47a30.61,30.61,0,0,1-7.15,19.58c-4.75-4.37-10.51-8.28-10.51-19C91.27,262.17,96.84,255.77,102.78,252Z" style="fill: rgb(112, 116, 79);"/>
      <path class="cls-3" d="M104.42,317.44c7.79,7.63,1.84,25-8.59,28.95-6.78-2.14-12-8.45-12.07-17.75,0-11.8,7.18-14.08,13.75-16.11A27.65,27.65,0,0,1,104.42,317.44Z" style="fill: rgb(186, 194, 101);"/>
      <path class="cls-4" d="M102.78,252c-5.94,3.73-11.51,10.13-11.51,19,0,10.72,5.76,14.63,10.51,19a20.13,20.13,0,0,1-12.42,6.8C81.81,298,78.87,294.94,75,294.42a47.13,47.13,0,0,1-4.41-15.06c3.62,0,6.86-.72,9.24-4.62,2.51-4.13-.74-9.23,2.58-17.93,2.14-5.62,6.63-8.76,12.12-8.76A11,11,0,0,1,102.78,252Z" style="fill: rgb(132, 177, 149);"/>
      <path class="cls-5" d="M95.83,346.39a12,12,0,0,1-5.23.81c-11.83-.81-15.76-9.12-17.13-18.5-1.06-7.3-.57-15.26-1-20.84a37.23,37.23,0,0,0-2.92-12.29,9.15,9.15,0,0,1,1.89-.84,7.91,7.91,0,0,1,3.63-.31l.14.29c6.51,13.11,14.5,13.8,22.33,17.82-6.57,2-13.78,4.31-13.75,16.11C83.79,337.94,89.05,344.25,95.83,346.39Z" style="fill: rgb(252, 234, 139);"/>
      <path class="cls-3" d="M75,294.42a7.91,7.91,0,0,0-3.63.31,9.15,9.15,0,0,0-1.89.84c-3.19-7.06-8.53-10.86-14.68-14.89,5-3,10.77-1.37,15.79-1.32A47.13,47.13,0,0,0,75,294.42Z" style="fill: rgb(186, 194, 101);"/>
      <path class="cls-5" d="M54.68,249.46c18.78-5.86,17.4,8.2,16.64,12.3a57.9,57.9,0,0,0-.69,17.6c-5-.05-10.74-1.68-15.79,1.32l-3.16-2.07c-3.55-2.32-6.69-4.32-8.5-8.18C41.08,266,43.71,252.88,54.68,249.46Z" style="fill: rgb(252, 234, 139);"/>
      <path class="cls-4" d="M70.56,328.77c1,6.41-1.51,13.46-10.61,16.94-13,5-16.8-10.09-17.4-19.73-.29-4.75,1.3-35.73,10.29-43.82a12.12,12.12,0,0,1,2-1.48c6.15,4,11.49,7.83,14.68,14.89-6.92,4.08-9,17.44-3.42,23.6A18.74,18.74,0,0,1,70.56,328.77Z" style="fill: rgb(132, 177, 149);"/>
    </g>
  </g>
</svg>