<svg id="visual" viewBox="0 0 900 150" width="900" height="150" xmlns="http://www.w3.org/2000/svg" xmlns:xlink="http://www.w3.org/1999/xlink" version="1.1"><rect x="0" y="0" width="900" height="150" fill="#F8F9FA"></rect><path d="M0 43L16.7 46.3C33.3 49.7 66.7 56.3 100 56.7C133.3 57 166.7 51 200 56.5C233.3 62 266.7 79 300 78.7C333.3 78.3 366.7 60.7 400 51.7C433.3 42.7 466.7 42.3 500 48C533.3 53.7 566.7 65.3 600 75.8C633.3 86.3 666.7 95.7 700 96.8C733.3 98 766.7 91 800 84.2C833.3 77.3 866.7 70.7 883.3 67.3L900 64L900 0L883.3 0C866.7 0 833.3 0 800 0C766.7 0 733.3 0 700 0C666.7 0 633.3 0 600 0C566.7 0 533.3 0 500 0C466.7 0 433.3 0 400 0C366.7 0 333.3 0 300 0C266.7 0 233.3 0 200 0C166.7 0 133.3 0 100 0C66.7 0 33.3 0 16.7 0L0 0Z" fill="#84b195"></path><path d="M0 37L16.7 46.2C33.3 55.3 66.7 73.7 100 80.3C133.3 87 166.7 82 200 73C233.3 64 266.7 51 300 53.5C333.3 56 366.7 74 400 76.8C433.3 79.7 466.7 67.3 500 64.5C533.3 61.7 566.7 68.3 600 68.8C633.3 69.3 666.7 63.7 700 58.5C733.3 53.3 766.7 48.7 800 53.3C833.3 58 866.7 72 883.3 79L900 86L900 0L883.3 0C866.7 0 833.3 0 800 0C766.7 0 733.3 0 700 0C666.7 0 633.3 0 600 0C566.7 0 533.3 0 500 0C466.7 0 433.3 0 400 0C366.7 0 333.3 0 300 0C266.7 0 233.3 0 200 0C166.7 0 133.3 0 100 0C66.7 0 33.3 0 16.7 0L0 0Z" fill="#98c294"></path><path d="M0 54L16.7 50C33.3 46 66.7 38 100 37.3C133.3 36.7 166.7 43.3 200 50.2C233.3 57 266.7 64 300 67.8C333.3 71.7 366.7 72.3 400 71.2C433.3 70 466.7 67 500 63C533.3 59 566.7 54 600 50.5C633.3 47 666.7 45 700 44.3C733.3 43.7 766.7 44.3 800 43.5C833.3 42.7 866.7 40.3 883.3 39.2L900 38L900 0L883.3 0C866.7 0 833.3 0 800 0C766.7 0 733.3 0 700 0C666.7 0 633.3 0 600 0C566.7 0 533.3 0 500 0C466.7 0 433.3 0 400 0C366.7 0 333.3 0 300 0C266.7 0 233.3 0 200 0C166.7 0 133.3 0 100 0C66.7 0 33.3 0 16.7 0L0 0Z" fill="#b3d191"></path><path d="M0 32L16.7 31.7C33.3 31.3 66.7 30.7 100 30.7C133.3 30.7 166.7 31.3 200 30.2C233.3 29 266.7 26 300 24.7C333.3 23.3 366.7 23.7 400 24.2C433.3 24.7 466.7 25.3 500 29.7C533.3 34 566.7 42 600 42.8C633.3 43.7 666.7 37.3 700 38.2C733.3 39 766.7 47 800 48C833.3 49 866.7 43 883.3 40L900 37L900 0L883.3 0C866.7 0 833.3 0 800 0C766.7 0 733.3 0 700 0C666.7 0 633.3 0 600 0C566.7 0 533.3 0 500 0C466.7 0 433.3 0 400 0C366.7 0 333.3 0 300 0C266.7 0 233.3 0 200 0C166.7 0 133.3 0 100 0C66.7 0 33.3 0 16.7 0L0 0Z" fill="#d5df8d"></path><path d="M0 19L16.7 18C33.3 17 66.7 15 100 15.5C133.3 16 166.7 19 200 22.2C233.3 25.3 266.7 28.7 300 28.3C333.3 28 366.7 24 400 23C433.3 22 466.7 24 500 26.5C533.3 29 566.7 32 600 30.5C633.3 29 666.7 23 700 23.2C733.3 23.3 766.7 29.7 800 29.2C833.3 28.7 866.7 21.3 883.3 17.7L900 14L900 0L883.3 0C866.7 0 833.3 0 800 0C766.7 0 733.3 0 700 0C666.7 0 633.3 0 600 0C566.7 0 533.3 0 500 0C466.7 0 433.3 0 400 0C366.7 0 333.3 0 300 0C266.7 0 233.3 0 200 0C166.7 0 133.3 0 100 0C66.7 0 33.3 0 16.7 0L0 0Z" fill="#fcea8c"></path></svg>