<svg id="visual" viewBox="0 0 900 150" width="900" height="150" xmlns="http://www.w3.org/2000/svg" xmlns:xlink="http://www.w3.org/1999/xlink" version="1.1"><rect x="0" y="0" width="900" height="150" fill="#18242D"></rect><path d="M0 61L25 68.5C50 76 100 91 150 98.8C200 106.7 250 107.3 300 95.2C350 83 400 58 450 47.5C500 37 550 41 600 54.7C650 68.3 700 91.7 750 102.5C800 113.3 850 111.7 875 110.8L900 110L900 151L875 151C850 151 800 151 750 151C700 151 650 151 600 151C550 151 500 151 450 151C400 151 350 151 300 151C250 151 200 151 150 151C100 151 50 151 25 151L0 151Z" fill="#fcea8c" stroke-linecap="round" stroke-linejoin="miter"></path></svg>