<svg id="visual" viewBox="0 0 900 150" width="900" height="150" xmlns="http://www.w3.org/2000/svg" xmlns:xlink="http://www.w3.org/1999/xlink" version="1.1"><rect x="0" y="0" width="900" height="150" fill="#F8F9FA"></rect><path d="M0 93L30 85.2C60 77.3 120 61.7 180 63.7C240 65.7 300 85.3 360 97.2C420 109 480 113 540 97.8C600 82.7 660 48.3 720 41.2C780 34 840 54 870 64L900 74L900 151L870 151C840 151 780 151 720 151C660 151 600 151 540 151C480 151 420 151 360 151C300 151 240 151 180 151C120 151 60 151 30 151L0 151Z" fill="#fcea8c"></path></svg>