<?xml version="1.0" encoding="utf-8"?>
<svg id="Réteg_1" data-name="Réteg 1" xmlns="http://www.w3.org/2000/svg" viewBox="0 0 595.28 595.28">
  <defs>
    <style>.cls-1 { fill: none; stroke: rgb(255, 255, 255); stroke-miterlimit: 10; stroke-width: 4.82px; }</style>
  </defs>
  <g id="official_vonalas" data-name="official vonalas">
    <path class="cls-1" d="M227.05,200.81c.28,72.76,51.33,96.57,63.14,136.53,15.7,53.09-1.65,96.57,26.24,130.86,37.89,46.59,88.47,26.82,104.2.12,30.92-52.47-24.91-56.86-3.9-108.81,24.41-60.34,93.51-91.89,93.51-154.24,0-71-62.56-121.73-133.18-123.12s-99.19,20.79-120.63,42.24S226.91,166.88,227.05,200.81Z"/>
    <circle class="cls-1" cx="416.53" cy="469.55" r="47.89"/>
    <path class="cls-1" d="M238.92,453.5C301.26,471.78,366.79,383,360.62,276c-9.68-168-111.07-158.49-137.17-132.39s-24.17,36-26.86,58.59c-2.18,18.3,2.73,34.76-1.43,65.76-.39,2.9-11.11,17.61-16.27,27.23s-19.48,32.27-15.61,41.14c4.55,10.45,22.93,6.34,30.08,21.61,6.31,13.52.26,37.6,2.26,51.41C199.21,434.1,222.07,448.55,238.92,453.5Z"/>
    <path class="cls-1" d="M89,270.26C75.65,210.44,90.83,106.87,212.63,82.09c120.86-24.6,225.14,62.56,220.25,128.35-3.93,53-58.16,87.2-135.47,125-22.52,11-48.78,29.95-70.36,61.27-20.84,30.22-22.83,59.19-39.27,119.19-2.9,10.56-10.67-33.54-29.64-114.39C151.89,374.87,106,345.76,89,270.26Z"/>
  </g>
</svg>